<mxfile host="Electron" agent="Mozilla/5.0 (Windows NT 10.0; Win64; x64) AppleWebKit/537.36 (KHTML, like Gecko) draw.io/28.2.5 Chrome/138.0.7204.251 Electron/37.6.1 Safari/537.36" version="28.2.5" pages="2">
  <diagram id="7ac91c9_CYBIp-0gwyT7" name="После - UML Sequence - Otium">
    <mxGraphModel dx="1426" dy="-3835" grid="1" gridSize="10" guides="1" tooltips="1" connect="1" arrows="1" fold="1" page="1" pageScale="1" pageWidth="827" pageHeight="1169" math="0" shadow="0">
      <root>
        <mxCell id="0" />
        <mxCell id="1" parent="0" />
        <mxCell id="V6-xCPEkFxJYa7TapErr-5" value="" style="shape=umlLifeline;participant=umlActor;perimeter=lifelinePerimeter;whiteSpace=wrap;html=1;container=1;collapsible=0;recursiveResize=0;verticalAlign=top;spacingTop=36;outlineConnect=0;fontSize=25;" parent="1" vertex="1">
          <mxGeometry x="50" y="4910" width="20" height="720" as="geometry" />
        </mxCell>
        <mxCell id="V6-xCPEkFxJYa7TapErr-6" value="Запрос списка фильмов &lt;br&gt;и сериалов Otium &lt;br&gt;(с фильтрами и сортировкой)" style="html=1;verticalAlign=bottom;startArrow=none;startFill=0;endArrow=block;startSize=8;rounded=1;fontSize=14;entryX=0.069;entryY=-0.001;entryDx=0;entryDy=0;entryPerimeter=0;" parent="V6-xCPEkFxJYa7TapErr-5" target="V6-xCPEkFxJYa7TapErr-23" edge="1">
          <mxGeometry x="0.017" y="10" width="60" relative="1" as="geometry">
            <mxPoint x="10" y="120" as="sourcePoint" />
            <mxPoint x="70" y="120" as="targetPoint" />
            <mxPoint as="offset" />
          </mxGeometry>
        </mxCell>
        <mxCell id="V6-xCPEkFxJYa7TapErr-7" value="Web Server" style="shape=umlLifeline;perimeter=lifelinePerimeter;whiteSpace=wrap;html=1;container=1;collapsible=0;recursiveResize=0;outlineConnect=0;fontSize=25;" parent="1" vertex="1">
          <mxGeometry x="500" y="4910" width="150" height="720" as="geometry" />
        </mxCell>
        <mxCell id="V6-xCPEkFxJYa7TapErr-8" value="" style="html=1;points=[];perimeter=orthogonalPerimeter;fontFamily=Helvetica;fontSize=25;fontColor=default;align=center;strokeColor=default;fillColor=default;" parent="V6-xCPEkFxJYa7TapErr-7" vertex="1">
          <mxGeometry x="70" y="160" width="10" height="340" as="geometry" />
        </mxCell>
        <mxCell id="V6-xCPEkFxJYa7TapErr-9" value="применить фильтры&amp;nbsp;" style="edgeStyle=orthogonalEdgeStyle;html=1;align=left;spacingLeft=2;endArrow=block;rounded=0;entryX=1;entryY=0;" parent="V6-xCPEkFxJYa7TapErr-7" target="V6-xCPEkFxJYa7TapErr-12" edge="1">
          <mxGeometry x="0.0125" relative="1" as="geometry">
            <mxPoint x="80" y="422" as="sourcePoint" />
            <Array as="points">
              <mxPoint x="100" y="422" />
              <mxPoint x="100" y="442" />
            </Array>
            <mxPoint as="offset" />
          </mxGeometry>
        </mxCell>
        <mxCell id="V6-xCPEkFxJYa7TapErr-10" value="&amp;nbsp;&lt;div&gt;&lt;br&gt;&lt;/div&gt;&lt;div&gt;выполнить сортировку&amp;nbsp;&lt;div&gt;с учетом требования:&amp;nbsp;&lt;div&gt;&amp;nbsp;контент без рейтинга&amp;nbsp;&lt;/div&gt;&lt;div&gt;кинокритиков в конце&amp;nbsp;&lt;/div&gt;&lt;div&gt;списка&lt;/div&gt;&lt;/div&gt;&lt;/div&gt;" style="edgeStyle=orthogonalEdgeStyle;html=1;align=left;spacingLeft=2;endArrow=block;rounded=0;entryX=1;entryY=0;" parent="V6-xCPEkFxJYa7TapErr-7" edge="1">
          <mxGeometry x="0.0156" relative="1" as="geometry">
            <mxPoint x="80" y="502" as="sourcePoint" />
            <Array as="points">
              <mxPoint x="100" y="502" />
              <mxPoint x="100" y="522" />
            </Array>
            <mxPoint x="85" y="522" as="targetPoint" />
            <mxPoint as="offset" />
          </mxGeometry>
        </mxCell>
        <mxCell id="V6-xCPEkFxJYa7TapErr-11" value="" style="html=1;points=[];perimeter=orthogonalPerimeter;fontFamily=Helvetica;fontSize=25;fontColor=default;align=center;strokeColor=default;fillColor=default;" parent="V6-xCPEkFxJYa7TapErr-7" vertex="1">
          <mxGeometry x="70" y="160" width="10" height="490" as="geometry" />
        </mxCell>
        <mxCell id="V6-xCPEkFxJYa7TapErr-12" value="" style="html=1;points=[];perimeter=orthogonalPerimeter;" parent="V6-xCPEkFxJYa7TapErr-7" vertex="1">
          <mxGeometry x="75" y="442" width="10" height="30" as="geometry" />
        </mxCell>
        <mxCell id="V6-xCPEkFxJYa7TapErr-13" value="" style="html=1;points=[];perimeter=orthogonalPerimeter;" parent="V6-xCPEkFxJYa7TapErr-7" vertex="1">
          <mxGeometry x="75" y="522" width="10" height="30" as="geometry" />
        </mxCell>
        <mxCell id="V6-xCPEkFxJYa7TapErr-15" value="opt" style="shape=umlFrame;whiteSpace=wrap;html=1;pointerEvents=0;" parent="V6-xCPEkFxJYa7TapErr-7" vertex="1">
          <mxGeometry x="-5" y="412" width="245" height="70" as="geometry" />
        </mxCell>
        <mxCell id="V6-xCPEkFxJYa7TapErr-16" value="opt" style="shape=umlFrame;whiteSpace=wrap;html=1;pointerEvents=0;" parent="V6-xCPEkFxJYa7TapErr-7" vertex="1">
          <mxGeometry x="-5" y="492" width="245" height="70" as="geometry" />
        </mxCell>
        <mxCell id="V6-xCPEkFxJYa7TapErr-41" value="" style="html=1;points=[];perimeter=orthogonalPerimeter;" parent="V6-xCPEkFxJYa7TapErr-7" vertex="1">
          <mxGeometry x="75" y="580" width="10" height="30" as="geometry" />
        </mxCell>
        <mxCell id="V6-xCPEkFxJYa7TapErr-42" value="обработать данные&amp;nbsp;" style="edgeStyle=orthogonalEdgeStyle;html=1;align=left;spacingLeft=2;endArrow=block;rounded=0;entryX=1;entryY=0;" parent="V6-xCPEkFxJYa7TapErr-7" edge="1">
          <mxGeometry x="-0.0026" relative="1" as="geometry">
            <mxPoint x="80" y="570" as="sourcePoint" />
            <Array as="points">
              <mxPoint x="100" y="570" />
              <mxPoint x="100" y="590" />
            </Array>
            <mxPoint as="offset" />
            <mxPoint x="85" y="590" as="targetPoint" />
          </mxGeometry>
        </mxCell>
        <mxCell id="V6-xCPEkFxJYa7TapErr-17" value="Series Server" style="shape=umlLifeline;perimeter=lifelinePerimeter;whiteSpace=wrap;html=1;container=1;collapsible=0;recursiveResize=0;outlineConnect=0;fontSize=25;" parent="1" vertex="1">
          <mxGeometry x="1005" y="4910" width="160" height="720" as="geometry" />
        </mxCell>
        <mxCell id="V6-xCPEkFxJYa7TapErr-18" value="" style="html=1;points=[];perimeter=orthogonalPerimeter;fontFamily=Helvetica;fontSize=25;fontColor=default;align=center;strokeColor=default;fillColor=default;" parent="V6-xCPEkFxJYa7TapErr-17" vertex="1">
          <mxGeometry x="75" y="320" width="10" height="50" as="geometry" />
        </mxCell>
        <mxCell id="V6-xCPEkFxJYa7TapErr-19" value="&lt;div style=&quot;text-align: left;&quot;&gt;&lt;font face=&quot;Inter, system-ui, -apple-system, system-ui, Segoe UI, Roboto, Oxygen, Ubuntu, Cantarell, Fira Sans, Droid Sans, Helvetica, Arial, sans-serif&quot;&gt;&lt;span style=&quot;font-size: 14px;&quot;&gt;список всех сериалов&lt;/span&gt;&lt;/font&gt;&lt;/div&gt;" style="html=1;verticalAlign=bottom;startArrow=none;endArrow=open;startSize=8;rounded=1;fontSize=25;startFill=0;endFill=0;dashed=1;entryX=1.192;entryY=0.614;entryDx=0;entryDy=0;entryPerimeter=0;exitX=-0.05;exitY=0.205;exitDx=0;exitDy=0;exitPerimeter=0;" parent="V6-xCPEkFxJYa7TapErr-17" target="V6-xCPEkFxJYa7TapErr-8" edge="1">
          <mxGeometry x="-0.001" relative="1" as="geometry">
            <mxPoint x="75" y="370" as="sourcePoint" />
            <mxPoint x="-170" y="370" as="targetPoint" />
            <mxPoint as="offset" />
          </mxGeometry>
        </mxCell>
        <mxCell id="V6-xCPEkFxJYa7TapErr-20" value="par" style="shape=umlFrame;whiteSpace=wrap;html=1;" parent="V6-xCPEkFxJYa7TapErr-17" vertex="1">
          <mxGeometry x="-510" y="181" width="670" height="220" as="geometry" />
        </mxCell>
        <mxCell id="V6-xCPEkFxJYa7TapErr-21" value="&lt;span style=&quot;background-color: rgb(255, 255, 255); font-size: 13px;&quot;&gt;&lt;font style=&quot;font-size: 13px;&quot;&gt;&lt;span style=&quot;font-family: Inter, system-ui, -apple-system, &amp;quot;system-ui&amp;quot;, &amp;quot;Segoe UI&amp;quot;, Roboto, Oxygen, Ubuntu, Cantarell, &amp;quot;Fira Sans&amp;quot;, &amp;quot;Droid Sans&amp;quot;, Helvetica, Arial, sans-serif; text-align: left;&quot; data-testid=&quot;resolvedVariable&quot; spellcheck=&quot;false&quot; class=&quot;resolvedVariable&quot;&gt;GET {{WebServer}}&lt;/span&gt;&lt;span style=&quot;font-family: Inter, system-ui, -apple-system, &amp;quot;system-ui&amp;quot;, &amp;quot;Segoe UI&amp;quot;, Roboto, Oxygen, Ubuntu, Cantarell, &amp;quot;Fira Sans&amp;quot;, &amp;quot;Droid Sans&amp;quot;, Helvetica, Arial, sans-serif; text-align: left;&quot; data-testid=&quot;resolvedVariable&quot; spellcheck=&quot;false&quot; class=&quot;resolvedVariable&quot;&gt;/&lt;/span&gt;&lt;/font&gt;&lt;span style=&quot;font-family: Inter, system-ui, -apple-system, &amp;quot;system-ui&amp;quot;, &amp;quot;Segoe UI&amp;quot;, Roboto, Oxygen, Ubuntu, Cantarell, &amp;quot;Fira Sans&amp;quot;, &amp;quot;Droid Sans&amp;quot;, Helvetica, Arial, sans-serif; text-align: left;&quot; data-offset-key=&quot;a3p1t-1-0&quot;&gt;&lt;span style=&quot;&quot; data-text=&quot;true&quot;&gt;content/list&lt;/span&gt;&lt;/span&gt;&lt;/span&gt;" style="html=1;verticalAlign=bottom;startArrow=none;endArrow=block;startSize=8;rounded=1;fontSize=25;entryX=-0.044;entryY=0.001;entryDx=0;entryDy=0;entryPerimeter=0;startFill=0;" parent="1" source="V6-xCPEkFxJYa7TapErr-23" target="V6-xCPEkFxJYa7TapErr-8" edge="1">
          <mxGeometry x="0.0018" relative="1" as="geometry">
            <mxPoint x="255" y="4990" as="sourcePoint" />
            <mxPoint as="offset" />
          </mxGeometry>
        </mxCell>
        <mxCell id="V6-xCPEkFxJYa7TapErr-22" value="UI: Otium" style="shape=umlLifeline;perimeter=lifelinePerimeter;whiteSpace=wrap;html=1;container=1;collapsible=0;recursiveResize=0;outlineConnect=0;fontSize=25;" parent="1" vertex="1">
          <mxGeometry x="245" y="4910" width="150" height="720" as="geometry" />
        </mxCell>
        <mxCell id="V6-xCPEkFxJYa7TapErr-23" value="" style="html=1;points=[];perimeter=orthogonalPerimeter;fontFamily=Helvetica;fontSize=25;fontColor=default;align=center;strokeColor=default;fillColor=default;" parent="V6-xCPEkFxJYa7TapErr-22" vertex="1">
          <mxGeometry x="70" y="120" width="10" height="560" as="geometry" />
        </mxCell>
        <mxCell id="V6-xCPEkFxJYa7TapErr-24" value="список фильмов и сериалов &#xa;(с учетом фильтров и сортировки)" style="html=1;verticalAlign=bottom;startArrow=none;endArrow=open;startSize=8;rounded=1;startFill=0;endFill=0;dashed=1;entryX=1.017;entryY=0.307;entryDx=0;entryDy=0;entryPerimeter=0;" parent="V6-xCPEkFxJYa7TapErr-22" edge="1">
          <mxGeometry relative="1" as="geometry">
            <mxPoint x="70" y="680" as="sourcePoint" />
            <mxPoint x="-180" y="680" as="targetPoint" />
            <mxPoint as="offset" />
          </mxGeometry>
        </mxCell>
        <mxCell id="V6-xCPEkFxJYa7TapErr-25" value="Films Server" style="shape=umlLifeline;perimeter=lifelinePerimeter;whiteSpace=wrap;html=1;container=1;collapsible=0;recursiveResize=0;outlineConnect=0;fontSize=25;" parent="1" vertex="1">
          <mxGeometry x="750" y="4910" width="160" height="720" as="geometry" />
        </mxCell>
        <mxCell id="V6-xCPEkFxJYa7TapErr-26" value="" style="html=1;points=[];perimeter=orthogonalPerimeter;fontFamily=Helvetica;fontSize=25;fontColor=default;align=center;strokeColor=default;fillColor=default;" parent="V6-xCPEkFxJYa7TapErr-25" vertex="1">
          <mxGeometry x="75" y="230" width="10" height="50" as="geometry" />
        </mxCell>
        <mxCell id="V6-xCPEkFxJYa7TapErr-27" value="&lt;span style=&quot;background-color: rgb(255, 255, 255); font-size: 14px;&quot;&gt;&lt;font style=&quot;font-size: 14px;&quot;&gt;&lt;span style=&quot;font-family: Inter, system-ui, -apple-system, &amp;quot;system-ui&amp;quot;, &amp;quot;Segoe UI&amp;quot;, Roboto, Oxygen, Ubuntu, Cantarell, &amp;quot;Fira Sans&amp;quot;, &amp;quot;Droid Sans&amp;quot;, Helvetica, Arial, sans-serif; text-align: left;&quot; data-testid=&quot;resolvedVariable&quot; spellcheck=&quot;false&quot; class=&quot;resolvedVariable&quot;&gt;GET {{FilmsServer}}&lt;/span&gt;&lt;span style=&quot;font-family: Inter, system-ui, -apple-system, &amp;quot;system-ui&amp;quot;, &amp;quot;Segoe UI&amp;quot;, Roboto, Oxygen, Ubuntu, Cantarell, &amp;quot;Fira Sans&amp;quot;, &amp;quot;Droid Sans&amp;quot;, Helvetica, Arial, sans-serif; text-align: left;&quot; data-testid=&quot;resolvedVariable&quot; spellcheck=&quot;false&quot; class=&quot;resolvedVariable&quot;&gt;/films&lt;/span&gt;&lt;/font&gt;&lt;span style=&quot;font-family: Inter, system-ui, -apple-system, &amp;quot;system-ui&amp;quot;, &amp;quot;Segoe UI&amp;quot;, Roboto, Oxygen, Ubuntu, Cantarell, &amp;quot;Fira Sans&amp;quot;, &amp;quot;Droid Sans&amp;quot;, Helvetica, Arial, sans-serif; text-align: left;&quot; data-offset-key=&quot;a3p1t-1-0&quot;&gt;&lt;span style=&quot;&quot; data-text=&quot;true&quot;&gt;/list&lt;/span&gt;&lt;/span&gt;&lt;/span&gt;" style="html=1;verticalAlign=bottom;startArrow=none;endArrow=block;startSize=8;rounded=1;fontSize=25;entryX=-0.044;entryY=0.001;entryDx=0;entryDy=0;entryPerimeter=0;startFill=0;" parent="V6-xCPEkFxJYa7TapErr-25" edge="1">
          <mxGeometry x="-0.0041" relative="1" as="geometry">
            <mxPoint x="-170" y="230" as="sourcePoint" />
            <mxPoint x="75" y="230" as="targetPoint" />
            <mxPoint as="offset" />
          </mxGeometry>
        </mxCell>
        <mxCell id="V6-xCPEkFxJYa7TapErr-28" value="&lt;span style=&quot;background-color: rgb(255, 255, 255); font-size: 14px;&quot;&gt;&lt;font style=&quot;font-size: 14px;&quot;&gt;&lt;span style=&quot;font-family: Inter, system-ui, -apple-system, &amp;quot;system-ui&amp;quot;, &amp;quot;Segoe UI&amp;quot;, Roboto, Oxygen, Ubuntu, Cantarell, &amp;quot;Fira Sans&amp;quot;, &amp;quot;Droid Sans&amp;quot;, Helvetica, Arial, sans-serif; text-align: left;&quot; data-testid=&quot;resolvedVariable&quot; spellcheck=&quot;false&quot; class=&quot;resolvedVariable&quot;&gt;GET {{SeriesServer}}&lt;/span&gt;&lt;span style=&quot;font-family: Inter, system-ui, -apple-system, &amp;quot;system-ui&amp;quot;, &amp;quot;Segoe UI&amp;quot;, Roboto, Oxygen, Ubuntu, Cantarell, &amp;quot;Fira Sans&amp;quot;, &amp;quot;Droid Sans&amp;quot;, Helvetica, Arial, sans-serif; text-align: left;&quot; data-testid=&quot;resolvedVariable&quot; spellcheck=&quot;false&quot; class=&quot;resolvedVariable&quot;&gt;/series&lt;/span&gt;&lt;/font&gt;&lt;span style=&quot;font-family: Inter, system-ui, -apple-system, &amp;quot;system-ui&amp;quot;, &amp;quot;Segoe UI&amp;quot;, Roboto, Oxygen, Ubuntu, Cantarell, &amp;quot;Fira Sans&amp;quot;, &amp;quot;Droid Sans&amp;quot;, Helvetica, Arial, sans-serif; text-align: left;&quot; data-offset-key=&quot;a3p1t-1-0&quot;&gt;&lt;span style=&quot;&quot; data-text=&quot;true&quot;&gt;/list&lt;/span&gt;&lt;/span&gt;&lt;/span&gt;" style="html=1;verticalAlign=bottom;startArrow=none;endArrow=block;startSize=8;rounded=1;fontSize=25;entryX=-0.044;entryY=0.001;entryDx=0;entryDy=0;entryPerimeter=0;startFill=0;exitX=0.933;exitY=0.468;exitDx=0;exitDy=0;exitPerimeter=0;" parent="V6-xCPEkFxJYa7TapErr-25" source="V6-xCPEkFxJYa7TapErr-8" edge="1">
          <mxGeometry x="-0.001" relative="1" as="geometry">
            <mxPoint x="85" y="319.86999999999995" as="sourcePoint" />
            <mxPoint x="330" y="319.86999999999995" as="targetPoint" />
            <mxPoint as="offset" />
          </mxGeometry>
        </mxCell>
        <mxCell id="V6-xCPEkFxJYa7TapErr-29" value="&lt;div style=&quot;text-align: left;&quot;&gt;&lt;font face=&quot;Inter, system-ui, -apple-system, system-ui, Segoe UI, Roboto, Oxygen, Ubuntu, Cantarell, Fira Sans, Droid Sans, Helvetica, Arial, sans-serif&quot;&gt;&lt;span style=&quot;font-size: 14px;&quot;&gt;список всех фильмов&lt;/span&gt;&lt;/font&gt;&lt;/div&gt;" style="html=1;verticalAlign=bottom;startArrow=none;endArrow=open;startSize=8;rounded=1;fontSize=25;startFill=0;endFill=0;dashed=1;entryX=1.067;entryY=0.35;entryDx=0;entryDy=0;entryPerimeter=0;exitX=0.186;exitY=0.996;exitDx=0;exitDy=0;exitPerimeter=0;" parent="1" source="V6-xCPEkFxJYa7TapErr-26" target="V6-xCPEkFxJYa7TapErr-8" edge="1">
          <mxGeometry x="0.0019" relative="1" as="geometry">
            <mxPoint x="810" y="5190" as="sourcePoint" />
            <mxPoint x="580" y="5171" as="targetPoint" />
            <mxPoint as="offset" />
          </mxGeometry>
        </mxCell>
        <mxCell id="V6-xCPEkFxJYa7TapErr-14" value="список фильмов и сериалов &#xa;(с учетом фильтров и сортировки)" style="html=1;verticalAlign=bottom;startArrow=none;endArrow=open;startSize=8;rounded=1;startFill=0;endFill=0;dashed=1;exitX=0.502;exitY=0.693;exitDx=0;exitDy=0;exitPerimeter=0;" parent="1" edge="1">
          <mxGeometry x="0.0599" y="-10" relative="1" as="geometry">
            <mxPoint x="570" y="5560" as="sourcePoint" />
            <mxPoint x="324.7" y="5560.04" as="targetPoint" />
            <mxPoint as="offset" />
          </mxGeometry>
        </mxCell>
      </root>
    </mxGraphModel>
  </diagram>
  <diagram id="qjlTD86mPPEza8RHr07y" name="До - UML Sequence - Otium">
    <mxGraphModel dx="3565" dy="2103" grid="1" gridSize="10" guides="1" tooltips="1" connect="1" arrows="1" fold="1" page="1" pageScale="1" pageWidth="827" pageHeight="1169" math="0" shadow="0">
      <root>
        <mxCell id="0" />
        <mxCell id="1" parent="0" />
        <mxCell id="-aoBLkYGr4sCsApF5WgV-1" value="par" style="shape=umlFrame;whiteSpace=wrap;html=1;" parent="1" vertex="1">
          <mxGeometry x="565" y="430" width="670" height="220" as="geometry" />
        </mxCell>
        <mxCell id="-aoBLkYGr4sCsApF5WgV-2" value="" style="shape=umlLifeline;participant=umlActor;perimeter=lifelinePerimeter;whiteSpace=wrap;html=1;container=1;collapsible=0;recursiveResize=0;verticalAlign=top;spacingTop=36;outlineConnect=0;fontSize=25;" parent="1" vertex="1">
          <mxGeometry x="120" y="250" width="20" height="720" as="geometry" />
        </mxCell>
        <mxCell id="-aoBLkYGr4sCsApF5WgV-3" value="Запрос списка фильмов &lt;br&gt;и сериалов Otium &lt;br&gt;(с фильтрами и сортировкой)" style="html=1;verticalAlign=bottom;startArrow=none;startFill=0;endArrow=block;startSize=8;rounded=1;fontSize=14;entryX=0.069;entryY=-0.001;entryDx=0;entryDy=0;entryPerimeter=0;" parent="-aoBLkYGr4sCsApF5WgV-2" target="-aoBLkYGr4sCsApF5WgV-13" edge="1">
          <mxGeometry width="60" relative="1" as="geometry">
            <mxPoint x="10" y="120" as="sourcePoint" />
            <mxPoint x="70" y="120" as="targetPoint" />
          </mxGeometry>
        </mxCell>
        <mxCell id="-aoBLkYGr4sCsApF5WgV-4" value="Web Server" style="shape=umlLifeline;perimeter=lifelinePerimeter;whiteSpace=wrap;html=1;container=1;collapsible=0;recursiveResize=0;outlineConnect=0;fontSize=25;" parent="1" vertex="1">
          <mxGeometry x="570" y="250" width="150" height="720" as="geometry" />
        </mxCell>
        <mxCell id="-aoBLkYGr4sCsApF5WgV-5" value="" style="html=1;points=[];perimeter=orthogonalPerimeter;fontFamily=Helvetica;fontSize=25;fontColor=default;align=center;strokeColor=default;fillColor=default;" parent="-aoBLkYGr4sCsApF5WgV-4" vertex="1">
          <mxGeometry x="70" y="160" width="10" height="340" as="geometry" />
        </mxCell>
        <mxCell id="-aoBLkYGr4sCsApF5WgV-6" value="" style="html=1;points=[];perimeter=orthogonalPerimeter;" parent="-aoBLkYGr4sCsApF5WgV-4" vertex="1">
          <mxGeometry x="75" y="430" width="10" height="40" as="geometry" />
        </mxCell>
        <mxCell id="-aoBLkYGr4sCsApF5WgV-7" value="обработать данные и&lt;br&gt;применить фильтры" style="edgeStyle=orthogonalEdgeStyle;html=1;align=left;spacingLeft=2;endArrow=block;rounded=0;entryX=1;entryY=0;" parent="-aoBLkYGr4sCsApF5WgV-4" target="-aoBLkYGr4sCsApF5WgV-6" edge="1">
          <mxGeometry relative="1" as="geometry">
            <mxPoint x="80" y="410" as="sourcePoint" />
            <Array as="points">
              <mxPoint x="120" y="410" />
              <mxPoint x="120" y="430" />
            </Array>
          </mxGeometry>
        </mxCell>
        <mxCell id="-aoBLkYGr4sCsApF5WgV-8" value="Series Server" style="shape=umlLifeline;perimeter=lifelinePerimeter;whiteSpace=wrap;html=1;container=1;collapsible=0;recursiveResize=0;outlineConnect=0;fontSize=25;" parent="1" vertex="1">
          <mxGeometry x="1075" y="250" width="160" height="720" as="geometry" />
        </mxCell>
        <mxCell id="-aoBLkYGr4sCsApF5WgV-9" value="" style="html=1;points=[];perimeter=orthogonalPerimeter;fontFamily=Helvetica;fontSize=25;fontColor=default;align=center;strokeColor=default;fillColor=default;" parent="-aoBLkYGr4sCsApF5WgV-8" vertex="1">
          <mxGeometry x="75" y="320" width="10" height="50" as="geometry" />
        </mxCell>
        <mxCell id="-aoBLkYGr4sCsApF5WgV-10" value="&lt;div style=&quot;text-align: left;&quot;&gt;&lt;font face=&quot;Inter, system-ui, -apple-system, system-ui, Segoe UI, Roboto, Oxygen, Ubuntu, Cantarell, Fira Sans, Droid Sans, Helvetica, Arial, sans-serif&quot;&gt;&lt;span style=&quot;font-size: 14px;&quot;&gt;список всех сериалов&lt;/span&gt;&lt;/font&gt;&lt;/div&gt;" style="html=1;verticalAlign=bottom;startArrow=none;endArrow=open;startSize=8;rounded=1;fontSize=25;startFill=0;endFill=0;dashed=1;entryX=1.192;entryY=0.614;entryDx=0;entryDy=0;entryPerimeter=0;exitX=-0.05;exitY=0.205;exitDx=0;exitDy=0;exitPerimeter=0;" parent="-aoBLkYGr4sCsApF5WgV-8" target="-aoBLkYGr4sCsApF5WgV-5" edge="1">
          <mxGeometry x="-0.001" relative="1" as="geometry">
            <mxPoint x="75" y="370" as="sourcePoint" />
            <mxPoint x="-170" y="370" as="targetPoint" />
            <mxPoint as="offset" />
          </mxGeometry>
        </mxCell>
        <mxCell id="-aoBLkYGr4sCsApF5WgV-11" value="&lt;span style=&quot;background-color: rgb(255, 255, 255); font-size: 13px;&quot;&gt;&lt;font style=&quot;font-size: 13px;&quot;&gt;&lt;span style=&quot;font-family: Inter, system-ui, -apple-system, &amp;quot;system-ui&amp;quot;, &amp;quot;Segoe UI&amp;quot;, Roboto, Oxygen, Ubuntu, Cantarell, &amp;quot;Fira Sans&amp;quot;, &amp;quot;Droid Sans&amp;quot;, Helvetica, Arial, sans-serif; text-align: left;&quot; data-testid=&quot;resolvedVariable&quot; spellcheck=&quot;false&quot; class=&quot;resolvedVariable&quot;&gt;GET {{WebServer}}&lt;/span&gt;&lt;span style=&quot;font-family: Inter, system-ui, -apple-system, &amp;quot;system-ui&amp;quot;, &amp;quot;Segoe UI&amp;quot;, Roboto, Oxygen, Ubuntu, Cantarell, &amp;quot;Fira Sans&amp;quot;, &amp;quot;Droid Sans&amp;quot;, Helvetica, Arial, sans-serif; text-align: left;&quot; data-testid=&quot;resolvedVariable&quot; spellcheck=&quot;false&quot; class=&quot;resolvedVariable&quot;&gt;/&lt;/span&gt;&lt;/font&gt;&lt;span style=&quot;font-family: Inter, system-ui, -apple-system, &amp;quot;system-ui&amp;quot;, &amp;quot;Segoe UI&amp;quot;, Roboto, Oxygen, Ubuntu, Cantarell, &amp;quot;Fira Sans&amp;quot;, &amp;quot;Droid Sans&amp;quot;, Helvetica, Arial, sans-serif; text-align: left;&quot; data-offset-key=&quot;a3p1t-1-0&quot;&gt;&lt;span style=&quot;&quot; data-text=&quot;true&quot;&gt;content/list&lt;/span&gt;&lt;/span&gt;&lt;/span&gt;" style="html=1;verticalAlign=bottom;startArrow=none;endArrow=block;startSize=8;rounded=1;fontSize=25;entryX=-0.044;entryY=0.001;entryDx=0;entryDy=0;entryPerimeter=0;startFill=0;" parent="1" source="-aoBLkYGr4sCsApF5WgV-13" target="-aoBLkYGr4sCsApF5WgV-5" edge="1">
          <mxGeometry x="-0.0014" relative="1" as="geometry">
            <mxPoint x="325" y="330" as="sourcePoint" />
            <mxPoint as="offset" />
          </mxGeometry>
        </mxCell>
        <mxCell id="-aoBLkYGr4sCsApF5WgV-12" value="UI: Otium" style="shape=umlLifeline;perimeter=lifelinePerimeter;whiteSpace=wrap;html=1;container=1;collapsible=0;recursiveResize=0;outlineConnect=0;fontSize=25;" parent="1" vertex="1">
          <mxGeometry x="315" y="250" width="150" height="720" as="geometry" />
        </mxCell>
        <mxCell id="-aoBLkYGr4sCsApF5WgV-13" value="" style="html=1;points=[];perimeter=orthogonalPerimeter;fontFamily=Helvetica;fontSize=25;fontColor=default;align=center;strokeColor=default;fillColor=default;" parent="-aoBLkYGr4sCsApF5WgV-12" vertex="1">
          <mxGeometry x="70" y="120" width="10" height="540" as="geometry" />
        </mxCell>
        <mxCell id="-aoBLkYGr4sCsApF5WgV-14" value="список фильмов и сериалов &#xa;(с учетом фильтров и сортировки)" style="html=1;verticalAlign=bottom;startArrow=none;endArrow=open;startSize=8;rounded=1;startFill=0;endFill=0;dashed=1;entryX=1.017;entryY=0.307;entryDx=0;entryDy=0;entryPerimeter=0;" parent="-aoBLkYGr4sCsApF5WgV-12" edge="1">
          <mxGeometry relative="1" as="geometry">
            <mxPoint x="65" y="540" as="sourcePoint" />
            <mxPoint x="-185" y="540" as="targetPoint" />
            <mxPoint as="offset" />
          </mxGeometry>
        </mxCell>
        <mxCell id="-aoBLkYGr4sCsApF5WgV-15" value="Films Server" style="shape=umlLifeline;perimeter=lifelinePerimeter;whiteSpace=wrap;html=1;container=1;collapsible=0;recursiveResize=0;outlineConnect=0;fontSize=25;" parent="1" vertex="1">
          <mxGeometry x="820" y="250" width="160" height="720" as="geometry" />
        </mxCell>
        <mxCell id="-aoBLkYGr4sCsApF5WgV-16" value="" style="html=1;points=[];perimeter=orthogonalPerimeter;fontFamily=Helvetica;fontSize=25;fontColor=default;align=center;strokeColor=default;fillColor=default;" parent="-aoBLkYGr4sCsApF5WgV-15" vertex="1">
          <mxGeometry x="75" y="230" width="10" height="50" as="geometry" />
        </mxCell>
        <mxCell id="-aoBLkYGr4sCsApF5WgV-17" value="&lt;span style=&quot;background-color: rgb(255, 255, 255); font-size: 14px;&quot;&gt;&lt;font style=&quot;font-size: 14px;&quot;&gt;&lt;span style=&quot;font-family: Inter, system-ui, -apple-system, &amp;quot;system-ui&amp;quot;, &amp;quot;Segoe UI&amp;quot;, Roboto, Oxygen, Ubuntu, Cantarell, &amp;quot;Fira Sans&amp;quot;, &amp;quot;Droid Sans&amp;quot;, Helvetica, Arial, sans-serif; text-align: left;&quot; data-testid=&quot;resolvedVariable&quot; spellcheck=&quot;false&quot; class=&quot;resolvedVariable&quot;&gt;GET {{FilmsServer}}&lt;/span&gt;&lt;span style=&quot;font-family: Inter, system-ui, -apple-system, &amp;quot;system-ui&amp;quot;, &amp;quot;Segoe UI&amp;quot;, Roboto, Oxygen, Ubuntu, Cantarell, &amp;quot;Fira Sans&amp;quot;, &amp;quot;Droid Sans&amp;quot;, Helvetica, Arial, sans-serif; text-align: left;&quot; data-testid=&quot;resolvedVariable&quot; spellcheck=&quot;false&quot; class=&quot;resolvedVariable&quot;&gt;/films&lt;/span&gt;&lt;/font&gt;&lt;span style=&quot;font-family: Inter, system-ui, -apple-system, &amp;quot;system-ui&amp;quot;, &amp;quot;Segoe UI&amp;quot;, Roboto, Oxygen, Ubuntu, Cantarell, &amp;quot;Fira Sans&amp;quot;, &amp;quot;Droid Sans&amp;quot;, Helvetica, Arial, sans-serif; text-align: left;&quot; data-offset-key=&quot;a3p1t-1-0&quot;&gt;&lt;span style=&quot;&quot; data-text=&quot;true&quot;&gt;/list&lt;/span&gt;&lt;/span&gt;&lt;/span&gt;" style="html=1;verticalAlign=bottom;startArrow=none;endArrow=block;startSize=8;rounded=1;fontSize=25;entryX=-0.044;entryY=0.001;entryDx=0;entryDy=0;entryPerimeter=0;startFill=0;" parent="-aoBLkYGr4sCsApF5WgV-15" edge="1">
          <mxGeometry x="-0.001" relative="1" as="geometry">
            <mxPoint x="-170" y="230" as="sourcePoint" />
            <mxPoint x="75" y="230" as="targetPoint" />
            <mxPoint as="offset" />
          </mxGeometry>
        </mxCell>
        <mxCell id="-aoBLkYGr4sCsApF5WgV-18" value="&lt;span style=&quot;background-color: rgb(255, 255, 255); font-size: 14px;&quot;&gt;&lt;font style=&quot;font-size: 14px;&quot;&gt;&lt;span style=&quot;font-family: Inter, system-ui, -apple-system, &amp;quot;system-ui&amp;quot;, &amp;quot;Segoe UI&amp;quot;, Roboto, Oxygen, Ubuntu, Cantarell, &amp;quot;Fira Sans&amp;quot;, &amp;quot;Droid Sans&amp;quot;, Helvetica, Arial, sans-serif; text-align: left;&quot; data-testid=&quot;resolvedVariable&quot; spellcheck=&quot;false&quot; class=&quot;resolvedVariable&quot;&gt;GET {{SeriesServer}}&lt;/span&gt;&lt;span style=&quot;font-family: Inter, system-ui, -apple-system, &amp;quot;system-ui&amp;quot;, &amp;quot;Segoe UI&amp;quot;, Roboto, Oxygen, Ubuntu, Cantarell, &amp;quot;Fira Sans&amp;quot;, &amp;quot;Droid Sans&amp;quot;, Helvetica, Arial, sans-serif; text-align: left;&quot; data-testid=&quot;resolvedVariable&quot; spellcheck=&quot;false&quot; class=&quot;resolvedVariable&quot;&gt;/series&lt;/span&gt;&lt;/font&gt;&lt;span style=&quot;font-family: Inter, system-ui, -apple-system, &amp;quot;system-ui&amp;quot;, &amp;quot;Segoe UI&amp;quot;, Roboto, Oxygen, Ubuntu, Cantarell, &amp;quot;Fira Sans&amp;quot;, &amp;quot;Droid Sans&amp;quot;, Helvetica, Arial, sans-serif; text-align: left;&quot; data-offset-key=&quot;a3p1t-1-0&quot;&gt;&lt;span style=&quot;&quot; data-text=&quot;true&quot;&gt;/list&lt;/span&gt;&lt;/span&gt;&lt;/span&gt;" style="html=1;verticalAlign=bottom;startArrow=none;endArrow=block;startSize=8;rounded=1;fontSize=25;entryX=-0.044;entryY=0.001;entryDx=0;entryDy=0;entryPerimeter=0;startFill=0;exitX=0.933;exitY=0.468;exitDx=0;exitDy=0;exitPerimeter=0;" parent="-aoBLkYGr4sCsApF5WgV-15" source="-aoBLkYGr4sCsApF5WgV-5" edge="1">
          <mxGeometry x="-0.001" relative="1" as="geometry">
            <mxPoint x="85" y="319.86999999999995" as="sourcePoint" />
            <mxPoint x="330" y="319.86999999999995" as="targetPoint" />
            <mxPoint as="offset" />
          </mxGeometry>
        </mxCell>
        <mxCell id="-aoBLkYGr4sCsApF5WgV-19" value="&lt;div style=&quot;text-align: left;&quot;&gt;&lt;font face=&quot;Inter, system-ui, -apple-system, system-ui, Segoe UI, Roboto, Oxygen, Ubuntu, Cantarell, Fira Sans, Droid Sans, Helvetica, Arial, sans-serif&quot;&gt;&lt;span style=&quot;font-size: 14px;&quot;&gt;список всех фильмов&lt;/span&gt;&lt;/font&gt;&lt;/div&gt;" style="html=1;verticalAlign=bottom;startArrow=none;endArrow=open;startSize=8;rounded=1;fontSize=25;startFill=0;endFill=0;dashed=1;entryX=1.067;entryY=0.35;entryDx=0;entryDy=0;entryPerimeter=0;exitX=0.186;exitY=0.996;exitDx=0;exitDy=0;exitPerimeter=0;" parent="1" source="-aoBLkYGr4sCsApF5WgV-16" target="-aoBLkYGr4sCsApF5WgV-5" edge="1">
          <mxGeometry x="-0.001" relative="1" as="geometry">
            <mxPoint x="880" y="530" as="sourcePoint" />
            <mxPoint x="650" y="511" as="targetPoint" />
            <mxPoint as="offset" />
          </mxGeometry>
        </mxCell>
        <mxCell id="-aoBLkYGr4sCsApF5WgV-20" value="список фильмов и сериалов &#xa;(с учетом фильтров и сортировки)" style="html=1;verticalAlign=bottom;startArrow=none;endArrow=open;startSize=8;rounded=1;startFill=0;endFill=0;dashed=1;exitX=0.502;exitY=0.693;exitDx=0;exitDy=0;exitPerimeter=0;" parent="1" source="-aoBLkYGr4sCsApF5WgV-4" edge="1">
          <mxGeometry x="-0.001" relative="1" as="geometry">
            <mxPoint x="640" y="880" as="sourcePoint" />
            <mxPoint x="400" y="749" as="targetPoint" />
            <mxPoint as="offset" />
          </mxGeometry>
        </mxCell>
      </root>
    </mxGraphModel>
  </diagram>
</mxfile>
